<?xml version="1.0" encoding="UTF-8"?>
<svg id="Layer_1" xmlns="http://www.w3.org/2000/svg" version="1.1" viewBox="0 0 1920 1080">
  <!-- Generator: Adobe Illustrator 30.2.1, SVG Export Plug-In . SVG Version: 2.1.1 Build 1)  -->
  <path d="M1106.8434,583.4685c-26.7418-10.2365-54.7972-5.0107-74.8047,15.0683l-22.777,22.8585c-53.8637-33.1649-98.4903-77.2049-131.3483-131.4175l23.7967-24.0965c16.764-16.9752,23.9444-42.3673,16.1473-65.7528-8.3622-25.0805-14.952-49.3245-18.9925-75.4698-4.549-29.4357-27.4725-49.7348-56.6427-54.564l-93.9753.1267c-36.7096,5.5826-61.2883,37.2505-57.3871,73.9684,8.0245,75.5262,33.0699,148.088,72.1664,213.2163,83.8776,139.7263,226.4268,230.8441,387.5614,251.8229,38.2026,4.9738,72.1361-17.8132,78.4724-57.3295.0697-30.2835,1.2444-61.2099-.3291-92.0423-1.6597-32.5229-27.0524-56.2717-58.0489-60.6731-22.1906-3.151-42.6056-7.5878-63.8386-15.7156Z" fill="none" stroke="#000" stroke-miterlimit="10" stroke-width="35"/>
</svg>