<?xml version="1.0" encoding="UTF-8"?>
<svg id="Layer_1" xmlns="http://www.w3.org/2000/svg" version="1.1" viewBox="0 0 1920 1080">
  <!-- Generator: Adobe Illustrator 30.2.1, SVG Export Plug-In . SVG Version: 2.1.1 Build 1)  -->
  <path d="M1212.6503,724.9432c-1.3691,2.2411-3.3464,3.6283-5.6295,3.9668-2.2182.3288-5.2602-.6748-6.7133-2.9575l-34.0709-53.5231-50.4062-79.6656c-22.963-36.2923-53.2917-91.5707-69.4825-131.0038-4.2706-10.4013-7.7723-20.3947-10.8947-31.1637-3.8279-13.2019-6.1816-26.6661-5.727-40.4236,2.578-78.0131,56.5988-145.3391,132.5484-163.5917,17.1666-4.1256,34.3022-5.7435,51.7698-4.6254,24.307,1.556,47.8974,7.8151,69.3434,18.9655,50.7312,26.3767,85.4955,76.1172,92.5413,132.8245,2.0278,16.3208,1.6577,32.3753-2.2451,48.4047-4.0781,16.7496-9.7716,32.5842-16.557,48.4818-9.7066,22.7418-20.1846,44.5631-32.1879,66.1686l-19.0649,34.3162c-18.3486,33.027-38.6855,64.5517-58.4097,96.8385l-34.8143,56.9878ZM1207.5166,704.3536l45.5483-73.8132c17.6391-28.585,34.7781-57.2473,51.0991-86.5667,20.0605-36.0371,57.2663-106.6193,58.0401-146.6975.8176-42.3409-15.9294-83.0148-45.5516-113.2972-11.0038-11.249-23.6299-20.5015-37.4593-28.0831-28.5204-15.6354-60.7989-21.6753-93.2877-18.2056-29.6305,3.1644-57.4748,14.7637-80.9128,33.2446-34.3544,27.0887-56.2928,67.7708-59.8238,111.3705-1.5472,19.1041,1.4256,34.5446,7.1493,52.4483,21.6668,67.7748,86.3307,166.9741,125.9833,228.7742l26.2996,40.989c.3392.5286,1.0286,1.0419,1.4569,1.062.3212.0151,1.0833-.6171,1.4586-1.2252Z" stroke="#000" stroke-miterlimit="10" stroke-width="15"/>
  <path d="M1286.9532,377.0565c0,46.0377-37.3566,83.3586-83.4383,83.3586s-83.4383-37.3209-83.4383-83.3586,37.3566-83.3586,83.4383-83.3586,83.4383,37.3209,83.4383,83.3586ZM1271.8493,377.0101c0-37.7171-30.605-68.2929-68.3582-68.2929s-68.3582,30.5758-68.3582,68.2929,30.605,68.2929,68.3582,68.2929,68.3582-30.5758,68.3582-68.2929Z" stroke="#000" stroke-miterlimit="10" stroke-width="15"/>
</svg>