<?xml version="1.0" encoding="UTF-8"?>
<svg id="Layer_1" xmlns="http://www.w3.org/2000/svg" version="1.1" viewBox="0 0 1920 1080">
  <!-- Generator: Adobe Illustrator 30.2.1, SVG Export Plug-In . SVG Version: 2.1.1 Build 1)  -->
  <path d="M1132.6054,515.4554c0-113.8076-92.2593-206.0668-206.0668-206.0668s-206.0668,92.2593-206.0668,206.0668,92.2593,206.0668,206.0668,206.0668,206.0668-92.2593,206.0668-206.0668Z" fill="none" stroke="#000" stroke-miterlimit="10" stroke-width="25"/>
  <path d="M985.2322,554.5358c7.6669,5.7313,9.8319,15.7324,4.0337,23.4706-4.7592,6.3516-15.1625,8.1573-22.5447,2.6094l-62.7977-47.1943c-3.8374-2.8839-6.2956-7.0744-6.3012-12.1049l-.1095-98.4786c-.0099-8.878,7.442-13.7935,15.5675-13.7135,7.7081.0759,14.8844,4.7971,14.9055,13.3054l.1959,78.8589.1973,10.7472,56.8533,42.4999Z" fill="none" stroke="#000" stroke-miterlimit="10" stroke-width="25"/>
</svg>